<?xml version="1.0" encoding="utf-8"?>
<!-- Generator: Adobe Illustrator 21.1.0, SVG Export Plug-In . SVG Version: 6.00 Build 0)  -->
<svg version="1.1" id="Layer_1" xmlns="http://www.w3.org/2000/svg" xmlns:xlink="http://www.w3.org/1999/xlink" x="0px" y="0px"
	 viewBox="0 0 1200 650" style="enable-background:new 0 0 1200 650;" xml:space="preserve">
<style type="text/css">
	.st0{fill:#FFFFFF;stroke:#FFFFFF;stroke-width:54.9061;stroke-linecap:round;stroke-linejoin:round;stroke-miterlimit:10;}
	.st1{fill:#AC1F2D;stroke:#AC1F2D;stroke-width:5.8828;stroke-linecap:round;stroke-linejoin:round;stroke-miterlimit:10;}
	.st2{fill:#AC1F2D;stroke:#AC1F2D;stroke-width:1.9609;stroke-miterlimit:10;}
</style>
<g>
	<g>
		<g>
			<path class="st0" d="M808.6,504.6c-4.3-4-2.2-6.1,0-8.3c2.9-5.1,37.5-35.4,42.5-39.4c1.8-3.3,0-6.1,0-6.1l-33.5,0
				c-4,0-4-2.2-4-2.2c0-2.9,0-5,6.8-5.1l53-0.1l7.9,0c4,0,4,5,2.2,7.2c-10.1,10.1-39.6,40.5-37.5,37.6c-2.2,2.2-4.3,5.1-2.2,7.9
				l39.7-0.1c6.8-2.9,9,0,9,2.2c0,2.2-2.2,6.1-9,6.1C883.6,504.5,811.5,504.6,808.6,504.6"/>
			<path class="st0" d="M907.8,504.4c-5.1-4-1.8-6.1,0-8.3c5-5.1,37.5-35.4,41.4-39.4c4.3-3.3,4.3-6.1,0-6.1l-31.4,0
				c-1.8,0-1.8-2.2-1.8-2.2c0-2.9-3.2-5,5-5.1l54.8-0.1l6.9,0c4.3,0,4.3,5,2.2,7.2c-9,10.1-39.6,37.6-39.6,37.6
				c-2.9,2.9-5,5.1-2.9,7.9l33.5,0c9-2.9,9,0,9,2.2c0,2.2-2.1,6.1-9,6.1C976,504.3,909.9,504.4,907.8,504.4"/>
			<path class="st0" d="M768.8,398.9c-2.2,0,0,9.4,0,9.4c2.9,2.9,31.4,2.8,35.4,2.8c0-2.9-4-12.2-6.2-12.2
				C798,398.9,768.8,397.1,768.8,398.9"/>
			<path class="st0" d="M717,500.7c-5,0-2.9-4.3,0-7.2c2.2-5.1,36.7-32.5,41.8-39.7c1.8-2.9-3.3-5-7.2-2.9c-2.2,0-9,1.1-7.9-5
				c0,0,1.8-2.2,7.9-2.2c22.3-5.1,37.5-2.9,37.5-2.9c6.1,2.9,6.1,5,2.2,7.9c-10.1,12.3-39.6,39.7-37.5,37.6c-4.3,5.1,0,7.2,0,7.2
				c13,0,9,2.9,9,5c0,0,0,2.2-4,2.2C753.8,500.7,729.2,500.7,717,500.7"/>
			<path class="st0" d="M611.5,434.9c2.9-8.3,2.9-7.2,7.9-13.4c34.5-65.7,97.3-66.9,114.6-46.7c17.3,19.1-8.9,56.6-35.3,66.1
				C662.4,453.9,611.5,434.9,611.5,434.9l-7.2,9c44.7,13.3,75,14.3,112.5-0.2c24.5-10.1,49.7-37.6,41.8-65
				c-9.4-39.3-96.4-29.1-114.7-17.1c-24.5,17.3-41.4,44.8-59.8,72.2c-82.1,123.8-108.4,130-108.4,135.1c4,9,7.2,15.1,12.3,12.2
				c43.6-25.3,83.9-92.5,116.3-137.2L611.5,434.9"/>
			<path class="st0" d="M1070.1,468.8c2.2,0,9-15.5,9-18.4c0-2.2-4-3.2-9-2.1c-1.8,2.2-22.3,16.3-20.2,20.6
				C1058.9,477.9,1074,463.4,1070.1,468.8l-6.1,9c-1.8,0-24.2,0-24.2,0s-15.1,22.4-20.2,22.4c-4.3,0-32.5,4-32.5,0
				c-1.1,0,1.8-4.3,1.8-4.3c4-2.9,11.2,0,14.4-2.9c6.9-2.2,36.4-36.5,46.5-44.8c9-10.1,42.5-10.2,46.5-10.2c0,0,5,0,8.3,7.2
				c0,5-25.5,40.4-23.4,45.5c0,5,28.5,2.1,33.6,2.1c1.8,0,1.8,7.2,0,7.2c-13.3,0-50.9,4-55.9,0.1c-1.8,0-1.8-2.2-1.8-2.2
				c-2.2-5,11.2-20.2,6.8-20.2L1070.1,468.8"/>
			<g>
				<path class="st0" d="M566.4,171.2c15.1-26.4,46.8-43.7,44.7-38.7c-7.2,7.2,0,12.3-2.1,12.3c-25.2,8-29.2,26.4-29.2,45.5
					c1.8,12.3,4,20.2,9,21.3c10.1,7.2,22.4,3.2,30.3-1.1c15.5-13,20.5-39.4,15.4-55.6c-4.3-8.3-13.4-8.3-15.5-8.3
					c-5.8,0,15.5-19.1,20.5-21.3c4-2.9,17.3,7.2,17.4,25.2c1.8,17.3-3.2,28.5-6.1,33.5c-16.2,30.7-48.6,47.7-71,47.7
					c-3.2,0-15.1,0-17.3-10.1C556.4,210.6,556.4,182.4,566.4,171.2"/>
				<path class="st0" d="M220.6,265.9c-6.8,4-39.3,19.5-49.7,27.5c-29.2,16.3-66.7,32.6-81.8,65c-3.2,2.2-7.2,9-7.2,11.2
					c0,6.1-2.9,17.3-2.9,25.3c10.1-25.3,20.1-47.7,46.5-60.7c18.4-8.3,78.9-40.9,92.3-48.8c-2.1,37.5-18.3,101.4-32.3,129.9
					c0,0-4,0-9,1.8c-44.7,13.4-107.8,70.1-116.7,114.9c-7.9,17.3-15.1,53.8-2.1,73.9c27.5,44.7,84.3-47.7,88.3-55l27.3-53.8
					l8.3-20.2c0,0,11.1-30.3,11.1-32.5l-15.5,2.2c-3.9,32.5-23,66.8-38.5,94.2c-6.8,17.3-60.5,90.6-75,35.8
					c-9.1-49.8,50.7-122,101.5-130c11.2,0,11.9,0,11.9,0l15.5-2.2c0,0,132.8,27.2,183.6,19.9c50.5-6.9,115.3-62.9,142.7-99.4
					c25.2-38.6,39.6-68.2,28.4-72.2c-8.3-2.9-11.1,24.5-13.3,33.6c-22.3,50.9-82.8,92.5-138.7,107.7c-70,18.5-128.8-12.1-195.9-18.8
					c10-34.6,29.4-107.5,33.4-135c13.3-8.3,15.1-12.3,28.5-20.6c26.3-16.3,51.5-53.8,66.6-84.1c19.4-37.5,51.7-149-20.4-122.6
					c-20.2,6.2-44.7,45.5-51.5,60.7C232.8,158.3,232.8,208.1,220.6,265.9l14.4-11.2c5-22.4,12.9-81.9,21.1-101.4
					c3.9-18.4,28-74,54.7-79.1c9-3.3,29.2,6.8,27.1,31.3c-8.9,102.5-95,146.2-103,149.1L220.6,265.9"/>
				<path class="st0" d="M343.7,326.6c0-3.9,1.8-9,1.8-9c-1.8-6.1,7.2-30.7,19.4-40.8c5-5.1,15.1-7.2,22,0c6.1,8.3,0,16.2-1.8,25.3
					c-2.2,5.4-15.1,23.5-37.5,17.4L343.7,326.6l0,6.1l21.3-7.2c15.1-8,50.5-38.7,50.4-59.9c-2.9-22.4-22.4-15.1-32.5-7.9
					c-30.3,19.2-44.7,39.4-46.5,47.7c-11.2,17.3-16.2,41.5-8.2,59.9c4.3,10.1,12.3,10.1,15.5,10.1c9-4,23.1-9,30.3-12.3
					c43.6-24.2,63.8-51.7,58.7-48.8c-2.9-2.9-47.6,38.7-62.7,40.8c-7.2,0-14.4,0-22.4-8.3c-2.2-4-4-14.1-4-14.1
					S343.7,329.5,343.7,326.6"/>
				<path class="st0" d="M586.5,33c-28.1-1.8-61.7,25.7-71.7,49.9c-13.3,24.5-24.4,57-18.3,105.7l8.4,33.2
					c2.9,17.3,2.9,35.7-3.2,45.8c-5,9-11.2,19.1-22.3,19.1c-9,0-20.2-10.1-22-21.3c0-18,1.8-39.3,10-46.5c11.9-7.2,20.2-1.1,23.1-4
					c0,0,6.1-3.3,8.3-9.4l0-7.9l6.2,24.2l-8.4-33.2c-19.1,1.8-48.6,33.3-61.6,61.8c-10.1,17.3,5.1,46.5,20.3,49.7
					c35.4,11.1,76.1-30.8,76-85.2c-1.2-62-23.6-121.9,20-156.2c13.3-6.2,13.3,0,18.4-2.2C571.3,56.5,588.6,33,586.5,33"/>
			</g>
			<path class="st0" d="M1139.7,507l0,1.8c0,0,0,0,0.4,0c1.4,0,3.2-0.4,4.7-1.1c1.4-0.7,2.9-1.8,3.6-3.3c0.7-1.4,1.1-3.3,1.1-4.7
				c0-1.1-0.4-2.5-0.7-3.6c-0.4-1.1-1.5-2.5-2.2-3.2c-0.7-0.7-2.2-1.4-3.2-1.8c-0.7-0.4-2.2-0.7-3.2-0.7c-0.4,0-0.4,0.4-0.4,0.4
				l0,1.8c0,0,0-0.4,0.4-0.4c1.1,0,2.5,0.4,3.6,1.1c1.1,0.7,2.2,1.8,2.9,2.9c0.7,0.7,1.1,2.2,1.1,3.6c0,1.4-0.4,2.9-1.1,4
				c-0.7,0.7-1.8,1.8-2.9,2.5c-0.7,0.4-2.2,0.7-3.6,0.7C1139.7,507,1139.7,507,1139.7,507"/>
			<path class="st0" d="M1139.7,499.1l0,2.5c0,0.4,0.4,0.4,0.4,0.4s0.7,0.7,1.1,1.4l0.7,1.4l2.5,0l-1.1-1.8
				c-0.4-0.7-1.1-1.4-1.1-1.8c0,0-0.7-0.4-1.1-0.4c0.7,0,1.8-0.7,2.2-1.1c0.4-0.4,0.7-1.1,0.7-1.8c0-0.7-0.4-1.4-0.7-1.8
				c0,0-0.7-0.7-1.1-1.1c-0.4,0-1.1-0.4-1.8-0.4l-0.7,0l0,2.2c0.7,0,1.5,0,1.8,0c0,0,0.4,0.7,0.4,1.1c0,0.4-0.4,1.1-0.7,1.1
				C1140.8,499.1,1140.1,499.1,1139.7,499.1"/>
			<path class="st0" d="M1139.7,492.6l0-1.8c-1.4,0-3.2,0.7-4.3,1.1c-1.4,0.7-2.5,1.8-3.2,3.2c-0.7,1.4-1.1,3.2-1.1,4.7
				c0,1.4,0.4,3.2,1.1,4.7c0.7,1.4,1.8,2.5,3.2,3.2c1.1,0.7,2.9,1.1,4.3,1.1l0-1.8c-1.1,0-2.5-0.4-3.3-1.1c-1.1-0.4-2.2-1.4-2.9-2.5
				c-0.4-0.7-0.7-2.2-0.7-3.6c0-1.4,0.4-2.9,1.1-4c0.4-0.7,1.4-1.8,2.5-2.5C1136.8,492.9,1138.3,492.6,1139.7,492.6"/>
			<path class="st0" d="M1139.7,496.9l0-2.2l-4,0l0,10.1l2.2,0l0-4l0.4,0c0.4,0,1.1,0.4,1.1,0.4s0,0.4,0.4,0.4l0-2.5
				c-0.4,0.4-0.4,0-0.4,0l-1.4,0l0-2.5l1.8,0L1139.7,496.9"/>
		</g>
	</g>
	<g>
		<g>
			<path class="st1" d="M808.6,504.6c-4.3-4-2.2-6.1,0-8.3c2.9-5.1,37.5-35.4,42.5-39.4c1.8-3.3,0-6.1,0-6.1l-33.5,0
				c-4,0-4-2.2-4-2.2c0-2.9,0-5,6.8-5.1l53-0.1l7.9,0c4,0,4,5,2.2,7.2c-10.1,10.1-39.6,40.5-37.5,37.6c-2.2,2.2-4.3,5.1-2.2,7.9
				l39.7-0.1c6.8-2.9,9,0,9,2.2c0,2.2-2.2,6.1-9,6.1C883.6,504.5,811.5,504.6,808.6,504.6"/>
			<path class="st1" d="M907.8,504.4c-5.1-4-1.8-6.1,0-8.3c5-5.1,37.5-35.4,41.4-39.4c4.3-3.3,4.3-6.1,0-6.1l-31.4,0
				c-1.8,0-1.8-2.2-1.8-2.2c0-2.9-3.2-5,5-5.1l54.8-0.1l6.9,0c4.3,0,4.3,5,2.2,7.2c-9,10.1-39.6,37.6-39.6,37.6
				c-2.9,2.9-5,5.1-2.9,7.9l33.5,0c9-2.9,9,0,9,2.2c0,2.2-2.1,6.1-9,6.1C976,504.3,909.9,504.4,907.8,504.4"/>
			<path class="st1" d="M768.8,398.9c-2.2,0,0,9.4,0,9.4c2.9,2.9,31.4,2.8,35.4,2.8c0-2.9-4-12.2-6.2-12.2
				C798,398.9,768.8,397.1,768.8,398.9"/>
			<path class="st1" d="M717,500.7c-5,0-2.9-4.3,0-7.2c2.2-5.1,36.7-32.5,41.8-39.7c1.8-2.9-3.3-5-7.2-2.9c-2.2,0-9,1.1-7.9-5
				c0,0,1.8-2.2,7.9-2.2c22.3-5.1,37.5-2.9,37.5-2.9c6.1,2.9,6.1,5,2.2,7.9c-10.1,12.3-39.6,39.7-37.5,37.6c-4.3,5.1,0,7.2,0,7.2
				c13,0,9,2.9,9,5c0,0,0,2.2-4,2.2C753.8,500.7,729.2,500.7,717,500.7"/>
			<path class="st1" d="M611.5,434.9c2.9-8.3,2.9-7.2,7.9-13.4c34.5-65.7,97.3-66.9,114.6-46.7c17.3,19.1-8.9,56.6-35.3,66.1
				C662.4,453.9,611.5,434.9,611.5,434.9l-7.2,9c44.7,13.3,75,14.3,112.5-0.2c24.5-10.1,49.7-37.6,41.8-65
				c-9.4-39.3-96.4-29.1-114.7-17.1c-24.5,17.3-41.4,44.8-59.8,72.2c-82.1,123.8-108.4,130-108.4,135.1c4,9,7.2,15.1,12.3,12.2
				c43.6-25.3,83.9-92.5,116.3-137.2L611.5,434.9"/>
			<path class="st1" d="M1070.1,468.8c2.2,0,9-15.5,9-18.4c0-2.2-4-3.2-9-2.1c-1.8,2.2-22.3,16.3-20.2,20.6
				C1058.9,477.9,1074,463.4,1070.1,468.8l-6.1,9c-1.8,0-24.2,0-24.2,0s-15.1,22.4-20.2,22.4c-4.3,0-32.5,4-32.5,0
				c-1.1,0,1.8-4.3,1.8-4.3c4-2.9,11.2,0,14.4-2.9c6.9-2.2,36.4-36.5,46.5-44.8c9-10.1,42.5-10.2,46.5-10.2c0,0,5,0,8.3,7.2
				c0,5-25.5,40.4-23.4,45.5c0,5,28.5,2.1,33.6,2.1c1.8,0,1.8,7.2,0,7.2c-13.3,0-50.9,4-55.9,0.1c-1.8,0-1.8-2.2-1.8-2.2
				c-2.2-5,11.2-20.2,6.8-20.2L1070.1,468.8"/>
			<g>
				<path class="st1" d="M566.4,171.2c15.1-26.4,46.8-43.7,44.7-38.7c-7.2,7.2,0,12.3-2.1,12.3c-25.2,8-29.2,26.4-29.2,45.5
					c1.8,12.3,4,20.2,9,21.3c10.1,7.2,22.4,3.2,30.3-1.1c15.5-13,20.5-39.4,15.4-55.6c-4.3-8.3-13.4-8.3-15.5-8.3
					c-5.8,0,15.5-19.1,20.5-21.3c4-2.9,17.3,7.2,17.4,25.2c1.8,17.3-3.2,28.5-6.1,33.5c-16.2,30.7-48.6,47.7-71,47.7
					c-3.2,0-15.1,0-17.3-10.1C556.4,210.6,556.4,182.4,566.4,171.2"/>
				<path class="st1" d="M220.6,265.9c-6.8,4-39.3,19.5-49.7,27.5c-29.2,16.3-66.7,32.6-81.8,65c-3.2,2.2-7.2,9-7.2,11.2
					c0,6.1-2.9,17.3-2.9,25.3c10.1-25.3,20.1-47.7,46.5-60.7c18.4-8.3,78.9-40.9,92.3-48.8c-2.1,37.5-18.3,101.4-32.3,129.9
					c0,0-4,0-9,1.8c-44.7,13.4-107.8,70.1-116.7,114.9c-7.9,17.3-15.1,53.8-2.1,73.9c27.5,44.7,84.3-47.7,88.3-55l27.3-53.8
					l8.3-20.2c0,0,11.1-30.3,11.1-32.5l-15.5,2.2c-3.9,32.5-23,66.8-38.5,94.2c-6.8,17.3-60.5,90.6-75,35.8
					c-9.1-49.8,50.7-122,101.5-130c11.2,0,11.9,0,11.9,0l15.5-2.2c0,0,132.8,27.2,183.6,19.9c50.5-6.9,115.3-62.9,142.7-99.4
					c25.2-38.6,39.6-68.2,28.4-72.2c-8.3-2.9-11.1,24.5-13.3,33.6c-22.3,50.9-82.8,92.5-138.7,107.7c-70,18.5-128.8-12.1-195.9-18.8
					c10-34.6,29.4-107.5,33.4-135c13.3-8.3,15.1-12.3,28.5-20.6c26.3-16.3,51.5-53.8,66.6-84.1c19.4-37.5,51.7-149-20.4-122.6
					c-20.2,6.2-44.7,45.5-51.5,60.7C232.8,158.3,232.8,208.1,220.6,265.9l14.4-11.2c5-22.4,12.9-81.9,21.1-101.4
					c3.9-18.4,28-74,54.7-79.1c9-3.3,29.2,6.8,27.1,31.3c-8.9,102.5-95,146.2-103,149.1L220.6,265.9"/>
				<path class="st1" d="M343.7,326.6c0-3.9,1.8-9,1.8-9c-1.8-6.1,7.2-30.7,19.4-40.8c5-5.1,15.1-7.2,22,0c6.1,8.3,0,16.2-1.8,25.3
					c-2.2,5.4-15.1,23.5-37.5,17.4L343.7,326.6l0,6.1l21.3-7.2c15.1-8,50.5-38.7,50.4-59.9c-2.9-22.4-22.4-15.1-32.5-7.9
					c-30.3,19.2-44.7,39.4-46.5,47.7c-11.2,17.3-16.2,41.5-8.2,59.9c4.3,10.1,12.3,10.1,15.5,10.1c9-4,23.1-9,30.3-12.3
					c43.6-24.2,63.8-51.7,58.7-48.8c-2.9-2.9-47.6,38.7-62.7,40.8c-7.2,0-14.4,0-22.4-8.3c-2.2-4-4-14.1-4-14.1
					S343.7,329.5,343.7,326.6"/>
				<path class="st1" d="M586.5,33c-28.1-1.8-61.7,25.7-71.7,49.9c-13.3,24.5-24.4,57-18.3,105.7l8.4,33.2
					c2.9,17.3,2.9,35.7-3.2,45.8c-5,9-11.2,19.1-22.3,19.1c-9,0-20.2-10.1-22-21.3c0-18,1.8-39.3,10-46.5c11.9-7.2,20.2-1.1,23.1-4
					c0,0,6.1-3.3,8.3-9.4l0-7.9l6.2,24.2l-8.4-33.2c-19.1,1.8-48.6,33.3-61.6,61.8c-10.1,17.3,5.1,46.5,20.3,49.7
					c35.4,11.1,76.1-30.8,76-85.2c-1.2-62-23.6-121.9,20-156.2c13.3-6.2,13.3,0,18.4-2.2C571.3,56.5,588.6,33,586.5,33"/>
			</g>
			<g>
				<path class="st2" d="M1139.7,507l0,1.8c0,0,0,0,0.4,0c1.4,0,3.2-0.4,4.7-1.1c1.4-0.7,2.9-1.8,3.6-3.3c0.7-1.4,1.1-3.3,1.1-4.7
					c0-1.1-0.4-2.5-0.7-3.6c-0.4-1.1-1.5-2.5-2.2-3.2c-0.7-0.7-2.2-1.4-3.2-1.8c-0.7-0.4-2.2-0.7-3.2-0.7c-0.4,0-0.4,0.4-0.4,0.4
					l0,1.8c0,0,0-0.4,0.4-0.4c1.1,0,2.5,0.4,3.6,1.1c1.1,0.7,2.2,1.8,2.9,2.9c0.7,0.7,1.1,2.2,1.1,3.6c0,1.4-0.4,2.9-1.1,4
					c-0.7,0.7-1.8,1.8-2.9,2.5c-0.7,0.4-2.2,0.7-3.6,0.7C1139.7,507,1139.7,507,1139.7,507"/>
				<path class="st2" d="M1139.7,499.1l0,2.5c0,0.4,0.4,0.4,0.4,0.4s0.7,0.7,1.1,1.4l0.7,1.4l2.5,0l-1.1-1.8
					c-0.4-0.7-1.1-1.4-1.1-1.8c0,0-0.7-0.4-1.1-0.4c0.7,0,1.8-0.7,2.2-1.1c0.4-0.4,0.7-1.1,0.7-1.8c0-0.7-0.4-1.4-0.7-1.8
					c0,0-0.7-0.7-1.1-1.1c-0.4,0-1.1-0.4-1.8-0.4l-0.7,0l0,2.2c0.7,0,1.5,0,1.8,0c0,0,0.4,0.7,0.4,1.1c0,0.4-0.4,1.1-0.7,1.1
					C1140.8,499.1,1140.1,499.1,1139.7,499.1"/>
				<path class="st2" d="M1139.7,492.6l0-1.8c-1.4,0-3.2,0.7-4.3,1.1c-1.4,0.7-2.5,1.8-3.2,3.2c-0.7,1.4-1.1,3.2-1.1,4.7
					c0,1.4,0.4,3.2,1.1,4.7c0.7,1.4,1.8,2.5,3.2,3.2c1.1,0.7,2.9,1.1,4.3,1.1l0-1.8c-1.1,0-2.5-0.4-3.3-1.1
					c-1.1-0.4-2.2-1.4-2.9-2.5c-0.4-0.7-0.7-2.2-0.7-3.6c0-1.4,0.4-2.9,1.1-4c0.4-0.7,1.4-1.8,2.5-2.5
					C1136.8,492.9,1138.3,492.6,1139.7,492.6"/>
				<path class="st2" d="M1139.7,496.9l0-2.2l-4,0l0,10.1l2.2,0l0-4l0.4,0c0.4,0,1.1,0.4,1.1,0.4s0,0.4,0.4,0.4l0-2.5
					c-0.4,0.4-0.4,0-0.4,0l-1.4,0l0-2.5l1.8,0L1139.7,496.9"/>
			</g>
		</g>
	</g>
</g>
</svg>
